<svg width="53" height="63" viewBox="0 0 53 63" fill="none" xmlns="http://www.w3.org/2000/svg">
<path d="M27.3201 37.1049H18.3201V62.1049H27.3201V37.1049Z" fill="#8BB361"/>
<path d="M27.3201 12.1049C13.5129 12.1049 2.32007 23.2978 2.32007 37.1049C2.32007 50.912 13.5129 62.1049 27.3201 62.1049H0.320068V0.104919H27.3201V12.1049Z" fill="white"/>
<path d="M27.3201 12.1049C41.1272 12.1049 52.3201 23.2978 52.3201 37.1049C52.3201 50.912 41.1272 62.1049 27.3201 62.1049V12.1049Z" fill="white"/>
<path d="M36.3201 37.1049C36.3201 42.0755 32.2906 46.1049 27.3201 46.1049V28.1049C32.2906 28.1049 36.3201 32.1344 36.3201 37.1049Z" fill="#009A9D"/>
<path d="M18.3201 37.1049C18.3201 32.1344 22.3495 28.1049 27.3201 28.1049V46.1049C22.3495 46.1049 18.3201 42.0755 18.3201 37.1049Z" fill="#843E4E"/>
</svg>
